<svg version="1.1" id="Layer_1" xmlns="http://www.w3.org/2000/svg" xmlns:xlink="http://www.w3.org/1999/xlink" x="0px" y="0px"
	 width="100%" viewBox="0 0 1024 1024" enable-background="new 0 0 1024 1024" xml:space="preserve">
<path fill="#000000" opacity="1.000000" stroke="none" 
	d="
M262.115295,479.146179 
	C267.115631,475.755005 269.762817,471.216156 272.216766,465.444397 
	C275.664001,457.336395 274.369904,449.512817 274.516357,441.596985 
	C274.696289,431.868561 268.408752,428.619293 260.235321,433.652924 
	C258.050873,434.998169 254.565887,433.220032 253.663132,437.857452 
	C252.489166,434.813110 252.653824,433.323578 253.843536,431.568787 
	C257.226257,426.579346 256.306854,424.438416 251.141144,421.849426 
	C241.086395,416.810028 231.820786,418.992798 222.426331,423.819763 
	C212.814484,428.758362 207.985504,436.487549 207.055527,447.054993 
	C206.790375,450.068054 204.247665,452.559601 205.031540,455.943298 
	C206.995514,464.421082 207.523743,473.400818 215.537704,479.282928 
	C219.119324,481.911774 221.105103,486.823029 226.538742,486.193817 
	C226.923569,489.647919 224.638000,489.466888 222.975204,489.266693 
	C214.589111,488.256927 207.137589,491.748322 200.307709,495.358215 
	C195.186798,498.064819 190.772552,502.436646 187.734695,508.443085 
	C184.507309,514.824341 181.903671,520.954407 181.899979,529.160278 
	C178.277893,524.118469 176.695145,520.010376 179.724564,515.100403 
	C180.570740,513.728943 180.881119,511.997772 181.297989,510.395386 
	C184.139801,499.471008 191.159073,492.184052 201.286423,487.781433 
	C203.653610,486.752350 205.697388,485.529999 207.425644,483.676300 
	C208.121292,482.930145 209.108948,481.986298 208.684998,481.111237 
	C206.668274,476.948669 206.989563,470.826172 204.694809,468.406647 
	C199.877518,463.327423 201.171188,457.852417 200.681351,452.548462 
	C199.675934,441.662140 205.665710,433.218323 211.719299,425.002075 
	C213.401245,422.719269 215.723907,421.269470 218.630203,420.395569 
	C223.137634,419.040253 223.528137,416.384949 220.124710,413.179443 
	C217.037292,410.271606 217.037308,410.271576 216.996063,405.691071 
	C222.933182,414.168213 231.531677,412.267761 239.392014,412.667053 
	C246.455811,413.025879 253.323288,413.020630 260.432068,414.940460 
	C269.174042,417.301331 278.638367,415.575867 287.790314,415.628357 
	C290.118378,415.641693 290.537811,413.484161 291.680511,412.172089 
	C295.736633,407.514893 297.430511,402.120911 296.673065,395.962158 
	C296.522797,394.740173 295.914520,393.948242 295.113892,393.014038 
	C289.920105,386.953857 285.295349,380.420868 280.485352,374.073792 
	C273.598907,364.986694 266.363159,356.210724 259.015198,347.525696 
	C255.548508,343.428223 251.777130,344.525726 248.767166,348.808228 
	C246.077545,352.634949 244.843307,357.028656 242.918808,361.108612 
	C241.977936,363.103302 240.764175,363.066620 239.677628,363.025330 
	C238.014099,362.962097 237.522903,361.152405 238.099899,359.974915 
	C241.083069,353.887177 243.714294,347.586182 247.724686,342.066132 
	C248.844940,340.524170 250.855438,340.118835 252.708008,340.106384 
	C256.865509,340.078461 258.830261,337.844910 260.172943,334.082825 
	C262.738464,326.894562 265.395660,319.724945 268.846710,312.877747 
	C269.985382,310.618530 271.762543,309.611847 273.831299,308.378113 
	C279.793396,304.822540 285.492218,300.818573 291.224792,296.889130 
	C292.931335,295.719360 292.502258,294.045776 291.742401,292.399628 
	C290.976166,290.739624 290.138367,289.067169 289.705811,287.308197 
	C288.840424,283.789154 290.727051,281.855164 294.351044,282.427399 
	C295.657227,282.633636 296.906769,283.177429 298.197144,283.508942 
	C301.475983,284.351227 302.887451,282.820679 303.014954,279.672607 
	C303.084259,277.961670 302.553711,276.406250 301.951843,274.834839 
	C300.175934,270.197906 298.228210,265.523376 302.986237,261.072174 
	C301.161713,273.436829 312.442139,278.658661 317.018463,287.556396 
	C319.706299,292.782318 324.400818,296.205048 326.885803,301.720551 
	C329.710266,307.989655 334.631805,313.456390 339.265289,318.723358 
	C343.028381,323.000916 345.688202,327.976898 349.203064,332.394897 
	C351.787903,335.643860 354.828491,337.172485 357.636139,334.478577 
	C361.117737,331.137970 365.207825,328.695435 368.936340,325.739594 
	C370.664642,324.369476 371.479309,321.899841 370.244385,321.023407 
	C366.032318,318.034058 365.892548,312.678864 362.185944,309.176605 
	C356.540588,303.842438 353.382202,296.287445 348.173065,290.354614 
	C342.382385,283.759460 337.635132,276.292847 332.419617,269.272034 
	C329.283691,265.050629 325.887939,260.536133 323.469604,255.693039 
	C322.120148,252.990540 320.540466,252.043488 317.797729,252.123367 
	C316.787811,252.152771 315.708405,251.740265 315.532990,250.561554 
	C315.320587,249.134674 316.299866,248.248840 317.549652,248.211716 
	C323.663849,248.029999 327.235413,244.759094 330.405670,239.670715 
	C332.523712,236.271271 336.746338,235.848312 341.216888,236.713257 
	C349.162018,238.250412 357.273407,239.097473 365.355103,239.688553 
	C369.449677,239.988022 372.800049,237.014603 376.351227,235.265350 
	C383.355713,231.815048 390.091309,228.883606 397.984711,233.430847 
	C400.624451,234.951569 404.241852,235.221802 407.369659,236.016403 
	C410.404297,236.787338 413.272644,233.797592 414.721405,231.025452 
	C417.385742,225.927261 421.547302,223.778687 426.928009,222.612366 
	C434.709229,220.925720 441.748962,216.732697 449.691772,215.415588 
	C450.460297,215.288132 451.410980,214.824387 451.824402,214.211411 
	C456.107391,207.861008 462.586731,207.512253 469.206909,207.943970 
	C475.970581,208.385025 481.998810,207.671112 486.722687,201.858948 
	C489.151215,198.870895 492.497467,199.861984 495.111389,202.322723 
	C496.803772,203.915924 498.217590,205.800583 499.844696,207.468369 
	C504.375885,212.112823 506.806915,212.759613 512.598816,209.640732 
	C518.896973,206.249176 524.912109,202.326569 530.993347,198.543274 
	C531.938232,197.955429 532.986938,197.001999 533.294128,196.004150 
	C536.306702,186.217972 545.037598,184.134338 552.840881,184.316544 
	C565.131531,184.603531 574.672729,179.479477 584.209290,173.227356 
	C585.045288,172.679245 585.908569,172.157867 586.678284,171.525543 
	C599.124023,161.301010 611.921631,163.978424 624.978394,170.237442 
	C633.373840,174.261993 641.228760,179.421387 650.190735,182.265030 
	C656.138184,184.152130 659.708374,189.533524 664.833618,192.492081 
	C680.243225,201.387222 694.368774,212.334473 710.159973,220.590561 
	C711.334290,221.204483 712.588379,221.754745 713.870850,222.058640 
	C725.444214,224.801163 736.294373,229.447769 747.047363,234.399536 
	C749.447510,235.504791 752.095764,236.679031 754.652771,236.733078 
	C767.112793,236.996399 776.892944,244.114700 787.551636,249.027344 
	C795.374390,252.632812 799.950500,259.000458 802.670044,266.779877 
	C808.437683,283.278290 817.497498,298.512726 821.399841,315.720581 
	C821.582886,316.527466 821.800049,317.390442 822.247192,318.064178 
	C829.907654,329.607330 830.519409,343.149414 833.168945,356.127045 
	C834.403992,362.176147 833.970703,367.909515 832.021729,373.806152 
	C827.190308,388.423859 826.431274,403.314087 829.579712,418.465790 
	C831.506775,427.739960 833.785156,436.974854 834.331116,446.500641 
	C834.650146,452.065918 836.573914,457.217743 838.684814,462.323914 
	C842.349548,471.188568 844.587097,480.303802 844.029663,490.048340 
	C843.707092,495.686249 843.844116,501.368561 844.746521,507.002869 
	C845.312317,510.535187 844.682922,514.053650 843.263794,517.281982 
	C840.311035,523.999390 836.440308,530.750244 831.419434,535.511230 
	C822.336182,544.124329 823.191162,553.248901 826.172791,563.409668 
	C826.594299,564.845886 827.265991,566.216492 827.603333,567.668274 
	C829.270996,574.844604 825.934021,581.146057 818.918945,583.496033 
	C814.758972,584.889587 810.906921,586.781250 807.285461,589.171265 
	C803.428711,591.716492 803.335327,593.393921 806.896973,596.478027 
	C809.557190,598.781555 811.775696,601.119751 809.813293,605.423462 
	C805.336670,602.878052 801.261719,597.703308 796.395142,598.730530 
	C791.982849,599.661865 785.975708,601.047119 785.592896,607.942383 
	C783.197388,606.608032 783.792480,605.295654 783.768433,604.250916 
	C783.555420,594.985596 780.509460,592.453735 771.234131,591.049561 
	C766.556519,590.341431 761.466370,589.274048 757.400391,586.206665 
	C754.908142,584.326416 751.752197,586.255371 749.196106,584.522095 
	C748.511780,580.468689 752.335327,579.899841 754.428772,578.924377 
	C759.736450,576.451477 762.404663,572.256104 764.829102,567.272644 
	C767.637573,561.499817 767.802856,554.540161 772.428894,549.655579 
	C774.408386,550.041077 775.159607,551.948059 774.792480,552.672852 
	C772.438171,557.321350 774.887939,562.970459 770.773987,567.479248 
	C766.544373,572.114807 768.610779,577.174072 774.815369,578.648804 
	C776.877197,579.138916 777.296265,581.160156 779.182129,581.640015 
	C783.369751,582.705444 788.114746,579.676697 789.630615,575.483582 
	C793.640930,564.390503 793.548218,552.836731 792.320801,541.559692 
	C791.699768,535.853149 789.528320,529.515076 782.080505,526.734497 
	C778.448303,525.378479 775.111206,524.418945 771.372681,524.263855 
	C769.828613,524.199829 768.270508,524.089294 768.293884,521.281921 
	C776.602539,520.368958 784.342163,517.519592 788.219788,509.412964 
	C789.933105,505.831085 794.616394,503.047394 791.914429,497.300812 
	C789.453125,505.089111 785.462280,511.260895 778.755005,515.577209 
	C773.800781,518.765381 768.313477,519.822998 762.772522,520.896057 
	C758.819946,521.661499 758.095215,519.085205 757.765503,515.867188 
	C756.458923,503.116028 755.008667,490.379547 753.589478,477.640106 
	C753.537292,477.172272 753.253479,476.730225 753.083130,476.290131 
	C742.017700,478.047974 740.800171,494.647980 750.997009,508.156036 
	C748.669189,510.974243 746.298889,513.917114 743.845032,516.788574 
	C742.250366,518.654541 740.694885,517.911560 739.082153,516.626831 
	C735.842407,514.045959 733.788940,510.599640 732.232910,506.915802 
	C725.763123,491.598755 726.787415,472.927734 740.705200,461.740540 
	C748.876221,455.172577 758.356445,454.467773 768.139221,456.478607 
	C772.991089,457.475952 777.677124,459.291168 781.912720,462.106110 
	C778.669556,457.385345 774.046143,455.122345 768.476807,454.315002 
	C766.203003,453.985382 762.358276,455.734924 762.076538,452.709320 
	C761.858459,450.367889 764.830139,447.981812 768.111572,447.567810 
	C769.616394,447.377930 771.694824,447.254242 771.045715,444.322449 
	C771.035767,443.983246 771.165222,443.880615 771.533691,443.812408 
	C778.390198,442.946625 788.991150,431.255646 789.639954,423.966858 
	C790.060608,419.241211 788.748596,414.270844 791.805786,409.957397 
	C787.168945,404.047577 790.376526,396.563690 787.241699,389.737518 
	C783.341614,381.244965 778.449219,373.005280 775.659607,363.872955 
	C775.096069,362.028107 773.664856,360.115662 773.599731,357.848022 
	C773.551880,356.178345 772.917419,354.677704 771.160461,354.609924 
	C767.794434,354.480072 764.323181,353.369324 761.272522,356.311829 
	C759.047485,358.457886 755.763184,359.837219 753.168335,360.826233 
	C746.885010,363.221130 740.911621,366.415710 734.441162,368.366455 
	C729.702393,369.795135 724.949036,371.854919 720.834534,374.210907 
	C716.164856,376.884857 711.497375,378.840424 706.533813,380.706543 
	C703.500427,381.846954 700.591553,383.160370 697.366760,383.819855 
	C695.481812,384.205292 694.331726,385.587250 694.264038,387.795654 
	C694.190979,390.178986 694.724182,392.350250 695.510010,394.570404 
	C697.870728,401.239960 701.044800,407.588318 703.779846,414.083496 
	C705.089600,417.194031 705.541077,421.022278 708.043701,423.798401 
	C708.816528,423.089569 709.409546,422.545593 710.001343,422.000793 
	C710.000000,422.000000 709.997559,421.995300 709.997559,421.995300 
	C709.208984,432.638794 717.708374,437.436127 723.834595,443.590607 
	C729.727356,449.510559 737.094543,451.758575 745.455139,450.751190 
	C747.321167,450.526337 749.155029,450.968628 749.896545,453.044769 
	C747.825256,457.518311 742.903259,457.678345 739.392334,459.905426 
	C733.615173,463.570068 732.077942,469.480713 729.064941,474.884735 
	C725.061829,482.064728 725.565308,489.513550 726.702698,496.460724 
	C727.701050,502.558319 728.536743,509.636322 733.375793,514.425171 
	C735.429932,516.458130 735.526245,518.671204 734.668518,520.152466 
	C731.615356,525.425110 730.938904,531.661194 728.610413,536.695679 
	C725.639221,543.119751 727.253540,548.957703 726.324158,554.955811 
	C725.320984,561.430298 727.147095,567.081421 731.210327,572.210876 
	C732.231934,573.500488 732.312622,575.535400 732.949951,577.637573 
	C729.758545,578.851257 726.604492,578.197876 723.548462,578.239014 
	C720.692688,578.277527 719.101685,579.384216 719.304688,582.408447 
	C719.487732,585.135071 718.770081,587.286194 716.992493,589.643066 
	C714.420471,593.053284 717.565918,599.213989 722.138123,600.675293 
	C730.893127,603.473694 739.894409,605.507385 748.289124,609.426575 
	C750.035828,610.242065 752.137939,610.393005 754.102905,610.626587 
	C760.486023,611.385437 766.532288,613.176758 772.198914,616.222046 
	C776.395081,618.477173 780.522400,616.214661 780.807983,611.501587 
	C780.866943,610.528870 780.604431,609.481079 782.224426,607.879639 
	C782.537415,613.626221 786.411255,617.028442 788.550171,621.402039 
	C789.437378,623.216248 787.970093,624.214294 787.120544,625.309204 
	C783.997070,629.335205 784.052185,633.268127 787.411377,637.023376 
	C793.051025,643.327881 796.471252,650.034973 793.233887,658.824768 
	C792.067322,661.992004 793.024719,665.385132 794.677124,668.462280 
	C796.763000,672.346741 795.968994,675.864746 793.938416,679.772583 
	C789.096680,689.090454 782.668335,696.485535 772.802673,700.657410 
	C769.563721,702.026978 767.812439,704.864807 766.900330,708.294373 
	C765.156372,714.852234 760.832703,720.534180 760.392761,727.583557 
	C760.321472,728.726318 759.280518,730.192688 758.262573,730.827820 
	C752.966248,734.132324 751.337769,739.056091 750.257874,744.966675 
	C748.845825,752.695190 744.958862,759.652954 740.538025,766.183594 
	C733.926575,775.950134 729.615479,786.366882 730.945435,798.498169 
	C731.579346,804.280212 729.741333,809.779846 728.159912,815.139038 
	C725.305176,824.813599 713.346008,832.160400 703.348450,830.472107 
	C692.519836,828.643494 681.766296,826.337158 671.028442,824.015442 
	C663.445312,822.375854 658.760925,816.872070 654.963989,810.648682 
	C651.749390,805.380005 648.005676,801.615417 641.247253,801.450745 
	C636.357605,801.331482 632.634094,798.923828 632.086243,793.374207 
	C631.971313,792.210083 631.741638,791.153198 630.346191,790.643982 
	C625.920288,789.029175 627.501282,787.125793 630.448608,785.902649 
	C636.440796,783.415710 642.307190,780.803162 647.362549,776.614563 
	C651.505859,773.181519 653.748840,768.599915 655.772827,763.777649 
	C657.497070,759.669373 658.685547,755.664734 658.856995,751.037354 
	C659.102112,744.421448 655.899841,739.184753 653.684265,733.523315 
	C653.225586,732.351257 652.761841,731.510132 653.519531,730.264954 
	C658.541077,731.767883 660.645996,736.763062 664.658447,739.572571 
	C672.497314,745.061096 680.906250,747.314087 689.692505,744.302979 
	C693.495361,742.999695 698.512756,740.970581 700.172974,735.482605 
	C701.185242,735.730042 702.006226,736.245911 702.687561,735.484497 
	C706.911804,730.763794 708.692200,723.870667 715.377075,721.284729 
	C715.812927,721.116150 715.797913,719.782288 716.274292,719.086670 
	C720.674011,717.508606 722.660339,713.726868 725.328125,710.607971 
	C721.837769,713.012451 718.166077,715.198242 715.681641,719.090942 
	C713.129517,720.936646 711.474365,718.221558 709.147095,718.209961 
	C707.939636,724.878540 704.724792,730.363586 699.991211,734.981689 
	C687.561340,746.145935 675.355530,746.129700 663.357544,734.543823 
	C656.173340,727.606384 649.338928,720.301392 642.462769,713.052124 
	C638.631836,709.013306 638.981384,707.125061 643.072327,703.059082 
	C645.412537,700.733154 647.310242,697.962036 649.448730,695.340393 
	C661.831238,704.062805 668.886902,716.733154 681.248230,723.237854 
	C679.959351,718.538513 675.271240,717.169067 672.597351,713.643921 
	C667.900879,707.452148 661.930481,702.226379 656.491699,696.597839 
	C653.295715,693.290283 647.559265,693.279480 644.305420,696.563049 
	C642.667847,698.215454 641.061035,699.901917 639.362244,701.489380 
	C634.982178,705.582031 634.897583,709.878723 638.873962,714.251892 
	C639.827515,715.300598 641.629272,715.686279 641.753784,717.829956 
	C639.699341,719.914612 637.215027,719.757385 634.804565,718.441467 
	C628.339539,714.912048 621.778992,715.550232 615.228577,717.891357 
	C611.715210,719.146973 608.080811,719.852905 604.703979,721.811096 
	C597.795410,725.817383 591.937012,730.878723 588.386658,737.909729 
	C583.745422,747.101135 584.065491,747.334900 593.862732,750.718323 
	C596.029297,751.466553 597.660156,753.636658 601.552429,752.109314 
	C598.633972,755.454834 596.880981,757.276245 593.677185,757.757996 
	C591.122070,758.142212 589.893677,766.063843 592.195374,768.797791 
	C593.800720,770.704468 594.254211,773.683350 597.361877,774.475830 
	C598.591309,774.789368 599.742493,776.279602 600.476074,777.505310 
	C602.712097,781.241516 605.315063,784.088806 610.148010,784.214233 
	C611.351501,784.245544 612.515930,785.782715 614.273682,787.038818 
	C610.369446,790.119690 606.122559,787.107727 602.607117,788.824158 
	C598.838257,790.664368 599.535461,795.886169 595.220276,797.705872 
	C595.290649,789.752991 591.848572,782.778625 590.171692,775.376465 
	C588.643494,768.630127 587.344299,761.454163 584.313904,755.330139 
	C581.250427,749.139343 582.887756,740.722168 575.120544,736.542664 
	C572.959412,738.177124 569.999817,738.218994 566.987854,738.120300 
	C563.691101,738.012329 560.781433,739.236511 558.163757,741.121826 
	C555.740173,742.867371 555.140625,745.662659 556.777466,747.727966 
	C560.698181,752.674805 559.229126,759.078430 561.928833,764.396118 
	C563.109375,766.721497 563.351013,769.460815 565.096741,771.902649 
	C568.555481,776.740601 563.438416,788.120789 557.128601,788.920288 
	C551.158447,789.676697 549.565002,792.442627 550.153442,797.754578 
	C550.291565,799.001160 550.425110,800.442322 549.146301,801.547791 
	C546.801941,801.157410 546.097778,799.192932 545.608643,797.332031 
	C544.581421,793.424377 541.891052,791.808228 538.204529,792.025391 
	C533.567444,792.298584 528.899536,792.724182 524.350708,793.620789 
	C520.275818,794.424011 518.847229,798.134644 517.404419,801.542053 
	C514.697632,807.934387 510.375244,809.978516 503.377533,808.132141 
	C497.445068,806.566772 494.810028,802.206116 495.361633,795.610107 
	C495.877136,789.446228 497.974335,784.416687 503.367584,780.859314 
	C506.132080,779.035889 508.333984,776.474854 509.574371,773.205322 
	C510.675659,770.302307 512.855164,768.281677 515.472778,766.629333 
	C520.960815,763.164978 526.348083,759.540771 531.836609,756.077148 
	C535.505310,753.761841 539.235962,751.784546 543.869629,751.807129 
	C549.258118,751.833374 552.941284,747.831726 554.308289,743.686035 
	C556.285828,737.688477 560.488586,735.751282 565.537598,734.496216 
	C570.054688,733.373413 573.891357,731.294128 577.232239,728.160767 
	C578.492798,726.978516 580.208862,725.572388 581.621704,726.246033 
	C588.251282,729.406921 592.004761,724.180969 596.329468,721.297791 
	C602.958069,716.878540 611.077393,715.239624 617.067017,709.552063 
	C618.827271,707.880493 622.118408,708.199402 624.792603,709.002747 
	C627.550964,709.831421 629.312683,709.338440 630.580383,706.221985 
	C633.050659,700.149414 639.377136,697.359009 643.281982,692.437073 
	C643.785217,691.802734 644.541199,691.345520 645.234802,690.889282 
	C653.029419,685.761292 655.349548,678.927917 652.605042,669.901123 
	C650.772278,663.873047 652.979553,657.672852 653.394714,651.570557 
	C653.613281,648.358704 656.680420,646.458313 659.781128,646.039734 
	C665.368958,645.285339 667.380676,641.876953 668.654968,636.811890 
	C671.171448,626.808960 675.277893,617.314575 679.055908,607.727966 
	C679.892822,605.604248 681.738098,604.391846 683.165039,602.787781 
	C684.601929,601.172668 686.206604,599.203552 685.397949,596.989380 
	C684.403564,594.266479 681.921448,595.974304 680.126587,596.063049 
	C673.897583,596.371155 670.397217,592.884888 670.993591,586.733826 
	C671.309326,583.476929 672.858948,581.169128 675.970154,579.856079 
	C679.120972,578.526367 681.386963,579.674133 683.499329,581.962585 
	C686.343384,585.043640 689.132507,588.399658 694.128296,586.348938 
	C700.194702,583.858765 704.735596,577.988953 704.514587,572.324341 
	C704.392578,569.196472 704.111877,566.046692 703.045654,562.987061 
	C700.056030,554.407837 703.610291,548.475891 712.506409,546.902588 
	C716.444092,546.206238 717.228271,543.552429 716.401428,540.221558 
	C715.749756,537.596436 714.053589,535.439392 712.296204,533.426147 
	C706.855957,527.194214 705.486389,519.836365 706.514221,511.939392 
	C707.376587,505.314056 705.736633,498.983368 704.529419,492.641602 
	C702.749390,483.290771 701.845093,473.850647 700.900879,464.409760 
	C700.506531,460.466766 699.462219,456.942719 696.691040,453.987152 
	C691.850220,448.824158 691.537354,442.192566 691.371460,435.721008 
	C691.282776,432.261932 693.561035,430.672729 697.181885,431.877441 
	C698.440125,432.296143 699.741943,432.736328 701.047607,432.828003 
	C703.595642,433.006927 705.003113,431.876465 703.988159,429.198975 
	C701.137390,421.678223 699.063110,413.807739 693.751404,406.425568 
	C690.985413,411.284943 686.692383,409.087585 682.719299,409.016541 
	C677.554871,408.924164 672.365479,408.600311 667.227417,408.958344 
	C650.752930,410.106415 636.457214,404.994354 623.753418,394.707703 
	C621.575500,392.944244 619.020081,391.600433 616.520691,390.288086 
	C598.683167,380.921997 584.909058,367.820953 577.509583,348.640564 
	C576.325134,345.570221 574.572510,342.595581 572.542053,339.999512 
	C567.599670,333.680298 565.679993,326.588379 567.218323,318.880859 
	C568.453613,312.691803 565.983093,308.361145 561.424316,305.112000 
	C557.898560,302.599152 555.868225,299.110413 554.741577,295.447540 
	C553.474426,291.328033 551.552612,290.458130 547.854492,291.640930 
	C547.321960,291.811218 546.632629,291.491150 546.165649,291.420654 
	C545.686646,290.263824 545.879517,289.106323 546.614014,288.984497 
	C550.099548,288.406372 552.715759,286.091431 555.787964,284.768005 
	C559.813843,283.033783 560.923523,280.652649 558.510620,276.667664 
	C557.426331,274.876953 556.266418,273.102325 554.912354,271.515320 
	C554.059204,270.515381 552.611145,269.880920 553.503174,268.270630 
	C554.265076,266.895203 555.853027,267.322327 557.042419,266.871674 
	C559.074158,266.101868 561.855774,268.553070 563.132446,265.201935 
	C562.993774,265.009949 562.966553,265.035339 562.966553,265.035339 
	C564.454529,264.864990 565.567383,264.194824 565.580078,262.568756 
	C565.629395,256.239075 566.658813,249.671982 565.294312,243.653229 
	C564.184692,238.758179 560.825134,233.914368 556.857544,230.420120 
	C548.852356,223.369980 538.899780,219.222351 528.568359,220.679993 
	C517.214172,222.281937 506.222168,226.111420 500.860901,238.655167 
	C499.458710,241.935806 498.855865,245.594009 497.335999,248.710815 
	C494.669708,248.561203 494.750549,246.775146 494.790527,245.398392 
	C494.979828,238.879669 491.625305,234.273148 487.415100,229.709320 
	C483.928894,225.930267 479.955719,224.281754 475.147552,222.848846 
	C471.586517,221.787598 468.329559,220.311066 464.425415,220.188675 
	C457.872162,219.983231 452.167389,221.991989 446.806152,225.423691 
	C444.964264,226.602646 442.949310,226.243698 440.989044,226.258911 
	C436.491028,226.293823 431.978973,226.423233 427.497742,226.130280 
	C423.798676,225.888443 421.228119,227.313324 421.572876,230.914932 
	C422.629272,241.951675 424.190918,252.940079 425.605438,264.345490 
	C428.744965,262.615204 427.963287,260.410614 427.740692,258.616638 
	C426.839569,251.353806 425.933167,244.081192 424.647339,236.880280 
	C423.821686,232.256577 425.608612,229.923630 429.919800,229.007645 
	C431.547455,228.661835 433.185394,228.354919 434.797211,227.945892 
	C438.643951,226.969788 441.881348,226.993469 441.976990,233.402191 
	C448.734100,225.155518 457.219330,223.986481 466.193268,223.767670 
	C474.484222,223.565491 481.567749,226.654205 486.509735,232.712372 
	C498.599243,247.532394 500.056610,270.148865 479.411194,283.232452 
	C476.233276,285.246399 472.377167,285.828217 468.894684,286.037048 
	C464.882172,286.277618 466.677307,282.231415 466.382050,280.012482 
	C464.543396,278.685425 462.892822,278.654694 460.994965,280.034821 
	C461.193817,282.384369 463.498108,284.319702 462.679688,287.317963 
	C458.328583,287.038635 454.667999,284.641357 450.361755,282.995239 
	C449.384979,284.478394 448.619965,287.183594 445.851746,285.085266 
	C441.436249,281.738281 437.171509,281.308014 433.110443,286.684052 
	C430.295746,280.049805 429.999847,273.572296 428.121368,267.273712 
	C428.121368,272.735748 428.125061,278.197815 428.118408,283.659851 
	C428.117004,284.823761 428.287445,286.041290 428.006104,287.138580 
	C427.609100,288.687042 426.577637,290.006042 424.767853,289.299469 
	C423.245789,288.705200 422.966675,287.655975 423.471649,285.725708 
	C425.294067,278.759583 425.826691,272.146881 422.473969,264.888000 
	C420.443390,260.491669 418.759827,255.896057 415.386963,252.661896 
	C410.419830,247.898956 405.425903,242.549698 397.726135,242.307587 
	C392.732391,242.150558 387.720703,242.083725 382.733856,242.324509 
	C377.977753,242.554138 373.645996,244.528351 370.233124,247.694916 
	C368.344360,249.447357 365.912994,248.718338 364.054352,250.467957 
	C359.171814,255.064087 356.972412,261.037964 353.801697,266.664062 
	C348.614929,275.867401 351.734009,284.209320 354.839935,291.747589 
	C358.368164,300.310791 364.291138,308.091583 375.111572,309.984955 
	C379.562164,310.763733 383.704254,313.202301 388.524475,312.853577 
	C390.816833,312.687714 391.221924,314.388062 390.676910,316.304932 
	C390.209625,317.948395 389.420135,319.669159 387.971405,320.393524 
	C382.077606,323.340424 377.602234,328.576294 370.951630,330.389313 
	C367.304779,331.383453 364.037994,333.635193 361.226166,336.300171 
	C358.872101,338.531281 356.263977,340.423035 352.988708,340.666046 
	C346.892822,341.118347 342.239868,343.633118 339.196625,350.479462 
	C339.196625,348.199432 338.779266,346.814972 339.262054,346.333923 
	C343.480103,342.130890 341.399597,336.920227 341.628723,332.137115 
	C341.759033,329.417114 340.558563,328.001312 337.227814,328.751709 
	C332.719116,329.767548 328.075043,329.616119 322.745575,328.511047 
	C325.497559,325.550262 327.732422,323.080261 330.040680,320.680908 
	C332.369995,318.259583 332.439972,315.660217 330.427307,313.172424 
	C325.633575,307.246979 319.884460,302.992157 311.752167,303.308075 
	C310.386688,303.361145 309.341492,302.535187 308.156799,302.043671 
	C305.683228,301.017487 302.886749,299.867188 300.331696,302.283112 
	C298.670471,303.853882 296.517944,303.355408 294.600220,303.153503 
	C290.484558,302.720184 287.428894,304.859131 284.904205,307.428558 
	C280.827820,311.577179 276.380432,315.425964 273.110870,320.328857 
	C272.660675,321.003998 271.648560,321.550110 271.599091,322.208740 
	C271.118530,328.607635 266.401611,334.357727 268.367249,341.054993 
	C271.100281,350.366821 273.457428,359.425690 282.977356,365.368896 
	C291.040436,370.402588 299.258301,372.971069 308.374847,374.033539 
	C312.684540,374.535797 316.438507,381.047394 315.638245,387.239563 
	C315.192963,390.684998 315.610260,393.278015 318.013397,395.860321 
	C320.622009,398.663391 320.773254,402.407562 319.699585,405.795197 
	C317.852875,411.622223 316.610352,417.768738 312.352020,422.588440 
	C309.802612,425.473877 308.988098,429.003387 310.856415,432.338715 
	C313.628265,437.287140 312.957886,442.386292 313.272247,447.695251 
	C313.932129,458.839935 313.504181,470.009430 314.463593,481.113220 
	C314.813110,485.158295 314.672241,489.078369 314.097321,493.038208 
	C311.864807,508.414764 317.008362,522.247437 322.973511,535.937927 
	C325.245544,541.152405 327.893646,546.023071 331.536713,550.493347 
	C338.064453,558.503357 343.877991,567.027283 348.322784,576.450745 
	C350.525024,581.119751 353.676819,585.232422 357.321899,588.978821 
	C362.891357,594.702942 368.533691,600.351501 373.435883,606.717163 
	C376.471313,610.658875 380.123566,614.142761 384.386047,616.874023 
	C387.645416,618.962524 390.430725,621.589294 392.735687,624.690308 
	C395.043335,627.794861 397.822144,630.353516 400.872589,632.732422 
	C403.481415,634.766968 406.351410,636.905579 407.991028,639.661377 
	C412.823395,647.783569 419.810425,654.005981 425.810211,661.090332 
	C428.077972,663.768005 430.641113,666.114319 433.386261,668.315857 
	C441.391663,674.736389 446.937408,682.870850 449.974030,692.709717 
	C452.689484,701.507874 459.656647,708.302307 461.683624,717.436218 
	C463.667603,726.376465 462.107391,734.473816 456.005615,741.502380 
	C455.896851,741.627686 455.786377,741.783997 455.642853,741.841919 
	C449.395660,744.366028 445.339630,748.634399 444.526093,755.580261 
	C444.460114,756.143616 443.827637,757.041382 443.372986,757.098083 
	C436.837830,757.912170 438.066315,762.826843 438.269470,766.959229 
	C438.479645,771.235413 437.446289,775.108643 434.813324,780.273499 
	C434.813324,772.132996 434.804626,765.413635 434.821625,758.694275 
	C434.824585,757.528137 435.215607,756.549316 435.863403,755.483154 
	C439.494690,749.506531 438.477905,745.868347 433.150970,742.649109 
	C428.613983,739.907166 423.352783,738.332703 418.347351,736.410095 
	C415.907837,735.473022 414.278992,737.225037 412.875214,738.836487 
	C407.978302,744.457886 402.484222,749.482300 397.278931,754.776855 
	C392.295471,759.845642 386.995667,764.509460 381.853607,769.518127 
	C380.404327,768.258911 380.413910,766.512512 381.135437,765.446777 
	C384.051422,761.140076 383.674011,756.340698 383.720612,751.569641 
	C383.775269,745.970581 383.229218,740.390686 385.944092,735.023132 
	C387.614838,731.719849 386.755341,727.803528 386.439178,724.181946 
	C386.258453,722.111572 384.886414,720.459778 382.767120,719.853088 
	C377.976807,718.481812 373.709747,716.083008 369.298706,713.847717 
	C366.770020,712.566223 363.353027,712.074036 360.733795,716.673157 
	C357.607758,722.162231 352.462677,726.691467 347.590790,730.948120 
	C341.585510,736.195068 336.106812,741.971436 331.427124,748.253052 
	C324.609528,757.404419 316.405792,765.173462 308.765228,773.509277 
	C305.702057,776.851135 306.061035,778.860718 310.191101,781.205933 
	C313.328918,782.987854 316.598633,784.578125 319.927216,785.973328 
	C324.198944,787.763733 327.935486,786.710388 331.000183,783.228210 
	C337.157471,776.231934 343.979675,769.900085 349.430420,762.162720 
	C352.028931,758.474182 356.085632,755.408203 359.485107,750.712708 
	C362.858063,758.199036 360.679535,765.268433 360.746704,772.513611 
	C356.445221,775.100464 357.909821,779.137390 357.410034,782.379761 
	C356.641815,787.363525 358.474548,792.590088 355.605804,797.468567 
	C354.548676,799.266235 355.641510,801.064209 357.670502,802.409180 
	C360.887024,804.541382 364.667542,805.591797 367.684143,808.171936 
	C368.935394,809.242126 371.268188,809.235474 373.543213,807.427124 
	C369.893860,805.654114 366.895447,803.798096 363.639801,802.716370 
	C359.552704,801.358337 358.212708,798.832947 358.678528,794.786011 
	C359.514191,787.526306 360.220581,780.251709 360.980957,772.983337 
	C363.743378,766.880310 362.773804,760.220520 363.699554,753.845703 
	C364.183319,750.514465 365.483398,747.090332 364.446533,743.411133 
	C362.171753,744.340088 360.922455,746.123657 359.504272,747.681580 
	C348.859222,759.375549 338.220032,771.075073 327.614532,782.804932 
	C325.957031,784.638123 324.297455,785.281250 321.912415,784.066833 
	C319.101196,782.635559 316.156097,781.457336 313.231873,780.260193 
	C309.847321,778.874634 309.427704,776.935547 311.822235,774.198364 
	C323.995483,760.283325 336.607025,746.789307 349.634735,733.661621 
	C354.072906,729.189270 360.159424,726.169373 362.348877,719.460510 
	C363.275116,716.622375 366.088074,715.857361 369.046265,717.117981 
	C369.352661,717.248596 369.664154,717.367737 369.968201,717.503479 
	C386.334595,724.811401 384.134613,720.858704 382.304688,737.603149 
	C380.842163,750.985413 379.392975,764.369263 377.784607,779.162109 
	C380.225372,776.805664 381.855316,775.347900 383.354126,773.765869 
	C392.051849,764.585266 400.771179,755.424072 409.359100,746.141479 
	C411.518188,743.807739 414.909973,742.993591 416.476410,740.026184 
	C416.543121,739.899780 416.757599,739.764709 416.893555,739.774109 
	C422.553650,740.163330 427.086182,743.506165 432.053406,745.676025 
	C435.015503,746.970093 434.361450,749.904785 433.995361,752.301270 
	C432.185730,764.147522 431.040161,776.058594 430.040741,787.994141 
	C429.771790,791.206299 429.259338,794.535278 427.127441,797.022156 
	C424.539886,796.820557 423.854919,795.123535 423.498108,793.579163 
	C422.157593,787.776978 418.997955,782.231812 420.005981,776.085815 
	C420.936218,770.413818 415.014343,769.627625 413.588043,765.183350 
	C400.384796,779.397217 387.576691,793.185669 374.768585,806.974182 
	C375.279541,807.484985 375.790527,807.995789 376.301483,808.506592 
	C382.578033,804.480408 386.413025,797.792542 391.776123,792.771057 
	C397.247742,787.648071 402.618195,782.420776 407.330078,776.833008 
	C409.604950,777.443054 409.308807,779.026184 409.183105,780.225342 
	C408.378265,787.902893 409.505554,795.740112 406.208801,803.225647 
	C403.975189,808.297302 405.084259,814.071045 404.473633,819.592102 
	C404.018555,815.185669 404.429810,810.664307 402.257080,806.542480 
	C401.645416,805.382141 402.781738,804.082458 403.531708,802.935974 
	C406.175781,798.894165 405.563202,794.860352 401.357330,790.534729 
	C395.193359,797.662720 385.949585,802.044617 383.573059,812.365234 
	C382.873932,815.401367 380.849579,817.641846 378.653381,819.749146 
	C374.765594,823.479675 372.957825,827.819458 374.553650,833.288574 
	C375.939453,838.037903 373.991364,842.021484 370.469696,844.853027 
	C366.123535,848.347473 362.609344,852.500732 359.176270,856.787109 
	C355.257385,861.680176 349.720276,863.651978 344.476685,861.050537 
	C334.844025,856.271484 324.560577,856.052124 314.383087,854.811523 
	C302.294739,853.338013 291.586639,847.647888 280.204620,844.025513 
	C265.108246,839.220947 252.468307,830.000061 243.157883,817.938293 
	C233.408401,805.307617 223.267181,792.718750 216.378342,777.846252 
	C211.493317,767.299866 209.838394,755.455933 202.659622,745.832764 
	C198.968399,740.884644 193.807205,737.800598 189.654892,733.500000 
	C187.177353,730.933899 185.173492,728.286438 183.757751,724.980347 
	C178.848999,713.516907 176.030792,701.640686 176.112228,689.145508 
	C176.163727,681.244324 179.394119,674.587952 184.914169,669.145020 
	C187.219452,666.871887 189.425522,664.586365 190.480911,661.586975 
	C194.986359,648.782349 204.496353,640.005432 215.373383,633.245605 
	C221.948380,629.159302 225.871796,624.018555 228.757294,617.469543 
	C230.184616,614.230103 232.321503,612.531372 236.233505,612.599243 
	C233.131927,619.387024 229.747055,625.681396 227.376404,632.336975 
	C225.497101,637.613037 225.468430,643.072754 228.155411,648.622009 
	C230.879059,654.246887 232.856339,660.234741 237.738724,664.440186 
	C238.725922,665.290588 240.410339,665.593567 239.842819,667.184753 
	C239.273254,668.781555 238.951172,670.832520 236.718430,671.265686 
	C235.602829,671.482117 234.511856,671.479309 233.377609,672.000610 
	C229.244827,673.899719 225.867416,676.995239 221.642960,678.864929 
	C219.029800,680.021545 219.710724,683.858948 221.142563,685.960083 
	C223.135483,688.884583 225.993759,691.194458 226.503586,695.023315 
	C226.655411,696.163757 227.573380,696.779541 228.714737,696.273926 
	C229.886826,695.754761 229.799530,694.595337 229.332932,693.704956 
	C228.021317,691.202026 226.636246,688.731018 225.149689,686.328064 
	C222.966339,682.798767 223.326981,680.401184 227.392365,678.363403 
	C233.904648,675.099182 240.159836,671.321960 246.636108,667.698669 
	C231.649673,657.082825 225.847504,642.983215 230.762543,630.114685 
	C235.769165,617.006409 253.415924,606.517395 265.659027,607.721069 
	C282.591949,609.385925 291.618286,620.936035 293.671631,642.897339 
	C298.244995,640.332153 299.416046,643.946655 301.072937,646.868591 
	C306.530518,656.493042 306.634430,656.649231 297.246094,661.753967 
	C277.368805,672.561951 257.383209,683.170776 237.464905,693.903625 
	C236.371414,694.492798 234.923141,694.747253 234.417252,696.168396 
	C235.041580,697.091187 236.085770,696.981689 236.654602,696.658936 
	C243.788849,692.609985 252.154755,690.885864 258.333710,684.998596 
	C260.478363,682.955139 263.672424,682.561462 266.279633,681.175964 
	C271.397949,678.456116 276.237030,674.607422 281.421631,672.916809 
	C287.757629,670.850708 291.929138,664.507507 299.646973,665.416504 
	C300.232269,669.491333 300.356506,672.987854 300.283966,676.480347 
	C300.251892,678.024109 301.026093,680.065002 298.959412,680.872681 
	C297.030823,681.626404 296.601044,679.466553 295.520538,678.605713 
	C294.763885,678.002930 294.323730,676.961060 293.525787,676.459717 
	C290.980164,674.860718 288.260437,673.431030 285.291199,675.362244 
	C277.967407,680.125916 274.068481,687.725403 271.723114,695.438171 
	C269.152832,703.890747 271.393921,712.864929 276.831024,719.771118 
	C280.314545,724.195862 284.690216,728.257141 289.174835,732.033752 
	C292.905121,735.175232 297.594727,734.567993 301.368317,736.853271 
	C305.722076,739.489868 310.276367,739.156128 314.758362,737.278687 
	C318.194702,735.839355 321.567413,733.927124 324.903381,732.621582 
	C334.999481,728.670532 339.122162,720.044800 341.187500,711.183411 
	C342.501221,705.546936 342.495544,698.976868 339.487793,692.227112 
	C336.951416,686.535095 333.877716,682.084290 330.004913,677.576843 
	C324.196350,670.816467 317.332855,666.237488 308.394135,665.031311 
	C305.602448,664.654480 302.812805,665.995789 300.028809,665.001648 
	C299.665588,663.304199 300.034943,662.261169 301.973175,661.691223 
	C306.489655,660.363281 308.269592,653.569641 305.724457,649.634766 
	C301.828186,643.611084 296.571625,638.296753 294.281677,631.464417 
	C293.068024,627.843201 292.105682,624.262207 290.449219,620.706665 
	C286.683594,612.623840 280.099396,609.164490 272.033966,607.476685 
	C270.734009,607.204590 269.605438,606.979858 268.425171,606.138855 
	C265.580383,604.112000 262.237793,603.615051 258.962952,604.925720 
	C253.781815,606.999390 247.995834,607.480835 243.284531,610.704102 
	C241.559570,611.884216 240.371887,611.860901 238.733627,610.053894 
	C240.802063,608.381592 242.521118,606.468445 244.659073,605.372314 
	C249.110016,603.090149 248.842743,600.004456 246.265045,596.847473 
	C239.791199,588.918884 233.640121,580.507019 222.255157,577.567749 
	C231.061020,574.981445 239.568115,576.595398 247.615891,574.589478 
	C253.795425,573.049194 259.827148,570.965698 266.371918,571.512207 
	C268.272430,571.670837 268.655121,569.906433 268.630707,568.286743 
	C268.476410,558.057739 269.303284,547.828247 265.286377,537.875671 
	C263.826721,534.259094 264.319946,529.604248 264.787140,525.522156 
	C265.396790,520.194763 262.108002,516.189392 260.542755,511.770599 
	C258.487518,505.968414 254.111588,501.267975 248.990662,497.219269 
	C245.311890,494.310760 241.789932,492.147369 236.921799,490.949615 
	C241.668488,490.009064 246.415176,489.068512 251.295746,488.101440 
	C250.246613,485.524994 248.663818,486.500244 247.358780,486.794006 
	C229.916229,490.720001 213.968948,480.258698 209.416702,465.398529 
	C204.307236,448.719452 212.336990,430.630554 228.160339,423.815796 
	C234.745529,420.979675 241.808990,421.096588 248.713181,423.165558 
	C252.597183,424.329498 252.430954,427.240723 251.627991,430.438019 
	C248.754608,441.879669 245.940536,453.336212 243.118317,464.790619 
	C242.851517,465.873505 242.065353,466.951935 242.952652,468.099823 
	C247.930038,468.556488 252.889252,465.524933 255.275574,460.106415 
	C257.669373,454.670776 259.025665,448.965393 256.613922,443.163757 
	C255.300369,440.003937 256.323486,438.327148 259.076202,436.718994 
	C268.367859,431.290771 269.612030,431.548706 272.101257,442.213470 
	C274.777405,453.678986 271.783112,464.267731 265.550262,474.035370 
	C264.568878,475.573395 263.390747,476.985840 261.865845,478.910950 
	C258.932098,481.213440 256.436127,483.061279 253.403549,485.306366 
	C259.111572,486.098206 260.306183,482.230042 262.115295,479.146179 
M699.894226,331.237244 
	C699.806641,330.409332 699.838867,329.546967 699.612366,328.758972 
	C697.777100,322.374481 694.584412,321.374817 689.721130,325.461426 
	C688.068054,326.850525 686.075073,326.670746 684.247009,325.695801 
	C682.666748,316.162811 682.822998,315.997986 692.021606,315.667816 
	C693.457764,315.616241 695.361572,316.357727 696.470947,313.588623 
	C691.439148,313.175690 686.812866,312.796051 681.835205,312.387573 
	C682.228027,318.666046 682.639709,324.305634 683.885010,329.962219 
	C684.861084,329.683563 685.379028,329.628296 685.804688,329.400543 
	C693.961914,325.035370 693.959656,325.031158 700.231750,332.675781 
	C702.943604,336.436737 701.709167,338.748871 697.791443,340.736542 
	C694.980225,342.162750 692.372803,344.063110 689.296265,344.866058 
	C686.098816,345.700623 684.993164,347.269470 685.755554,350.654663 
	C686.312744,353.129120 687.399536,356.336975 684.972900,358.184021 
	C681.852417,360.559174 677.778870,361.089386 674.004272,360.428833 
	C671.004822,359.903992 671.067261,356.646240 670.810059,354.249908 
	C670.353699,349.997223 668.343994,348.102325 663.975342,347.326447 
	C648.498291,344.577698 637.670593,335.497467 632.126282,320.964935 
	C626.642273,306.590576 636.104980,293.346222 651.541748,292.810974 
	C655.322693,292.679871 659.112000,292.791412 663.274902,292.791412 
	C664.054871,284.409607 665.527832,276.191498 674.143433,271.426880 
	C682.811157,266.633392 690.589478,270.998047 698.637878,273.437347 
	C691.207397,266.165771 681.134644,266.391052 673.530945,269.037781 
	C665.560852,271.812073 660.323059,280.361023 660.992859,290.626373 
	C655.481445,290.626373 650.661255,290.745056 645.849731,290.591309 
	C641.483459,290.451782 630.094788,299.894897 629.718567,303.678955 
	C628.771729,313.203766 627.684021,323.055115 634.365662,331.121368 
	C641.028931,339.165466 648.439636,346.298492 659.307495,348.887848 
	C664.315979,350.081146 668.901611,352.906921 668.249268,359.564514 
	C668.031189,361.789795 668.954285,363.552155 671.508301,363.717377 
	C675.318787,363.963898 679.039795,364.105377 682.782471,362.563232 
	C686.744385,360.930786 688.507385,358.653961 687.771301,354.258331 
	C687.437866,352.267517 686.699158,349.417236 688.797668,348.205566 
	C692.405334,346.122559 696.048340,344.162415 699.588013,341.916962 
	C702.900391,339.815704 705.052734,335.755463 703.087463,332.131165 
	C701.963074,330.057587 701.023376,331.405060 699.894226,331.237244 
M677.899719,648.548950 
	C675.864075,654.494324 680.966797,657.136475 683.934448,661.363098 
	C678.231140,661.807190 675.982178,667.189148 671.323425,669.428772 
	C667.073975,671.471619 667.111206,677.723022 670.582947,681.256042 
	C677.959473,688.762634 685.358093,696.247864 692.787659,703.701965 
	C694.763184,705.684021 695.248291,715.100098 693.023865,716.014709 
	C689.518799,717.455933 687.890686,720.427795 685.354004,723.222412 
	C695.865417,720.344055 699.554810,710.418213 693.441956,702.080261 
	C688.899658,695.884521 683.037720,690.861511 677.807861,685.275024 
	C669.568420,676.473755 669.678223,676.615601 678.313416,668.063232 
	C681.658630,664.750122 684.266602,664.221802 687.233276,668.140137 
	C687.832153,668.931091 688.564331,669.633789 689.299316,670.307007 
	C694.813110,675.357056 699.225952,681.610901 705.520447,685.878418 
	C703.326355,679.028076 697.874939,674.836365 693.786804,669.391785 
	C709.510620,674.505127 722.433899,685.429443 738.071533,690.563293 
	C727.464478,683.716309 716.592529,677.416016 705.550232,671.429932 
	C694.684753,665.539734 683.555359,660.075806 677.840820,647.176025 
	C676.632568,641.918457 676.352539,636.698425 677.590271,631.348083 
	C678.603455,626.968201 681.944275,623.847290 683.446106,619.996338 
	C686.527161,612.095398 691.818848,606.217712 697.904236,600.816772 
	C703.629456,595.735474 705.665161,596.427673 709.652710,603.159546 
	C712.179993,607.426086 712.046387,609.831055 707.388123,612.518982 
	C700.503052,616.491821 696.377869,623.139038 693.819641,630.507751 
	C691.101624,638.336792 695.262817,645.705383 703.015747,647.728577 
	C702.168152,630.522827 711.971252,616.531921 727.331116,613.026001 
	C740.135681,610.103271 755.511963,617.767151 760.545959,629.449097 
	C765.808411,641.661133 764.634277,661.393677 744.114868,671.904602 
	C744.855408,673.657288 747.342773,673.720276 747.866455,676.028198 
	C746.313599,680.698975 741.923035,684.577026 741.388672,690.512390 
	C742.614502,690.274231 743.419861,690.297058 743.492554,690.077393 
	C745.196411,684.930786 749.947510,680.914368 750.248779,675.572876 
	C750.455688,671.903381 752.134033,670.201355 754.394836,668.470642 
	C759.066284,664.894470 761.890137,659.242920 763.583008,654.623108 
	C766.406921,646.916931 765.294861,637.953979 763.897522,629.542908 
	C763.794617,628.923401 763.441223,628.250305 763.003052,627.796265 
	C757.594666,622.192017 753.019775,616.002441 745.500122,612.344055 
	C738.269348,608.826233 730.935059,609.540405 724.346313,610.981140 
	C716.723022,612.648132 711.163086,619.401917 705.965210,625.308960 
	C702.297119,629.477661 701.088135,635.133728 699.450928,640.383057 
	C698.039795,640.366760 697.213806,639.791565 696.821106,638.468018 
	C694.929321,632.092346 700.435242,619.731384 706.592590,616.613647 
	C714.408691,612.655762 715.625610,607.653625 710.535767,600.779358 
	C709.988342,600.040039 709.928467,598.941284 709.636414,598.011108 
	C708.623718,594.786743 703.755615,592.355591 701.881348,594.727295 
	C699.646423,597.555298 696.459412,597.921570 694.020081,599.872925 
	C686.469971,605.912964 682.174377,614.092407 677.869141,622.508789 
	C674.170471,629.739258 673.777466,637.099060 674.302673,644.781860 
	C674.451721,646.962646 674.526611,649.571533 677.899719,648.548950 
M570.895264,299.481812 
	C573.220886,299.561279 575.546265,299.694855 577.872253,299.707397 
	C581.305847,299.725952 583.648132,297.325165 584.438538,294.721161 
	C586.620239,287.533478 588.811462,280.411774 591.812378,273.483643 
	C594.788696,266.612274 599.743286,261.803375 605.462341,261.738098 
	C606.581543,261.725311 607.699768,261.464203 608.708679,262.481262 
	C612.016541,265.815948 614.122681,265.042145 617.139282,261.756683 
	C620.160645,258.465881 620.679077,254.383682 622.317444,250.701202 
	C624.204895,246.458817 621.545410,242.810272 616.619934,242.416870 
	C612.974670,242.125702 609.292419,242.307892 605.626953,242.254227 
	C604.129883,242.232315 602.463745,242.350220 601.697205,240.700592 
	C598.730286,234.316223 591.754944,236.006134 586.900452,233.415710 
	C585.312744,232.568451 583.524780,234.001968 581.738525,235.241226 
	C576.511108,238.867859 578.591858,245.197372 575.747070,249.804962 
	C574.553528,251.738113 572.174316,254.444855 572.368652,257.458496 
	C572.596375,260.988373 571.176514,263.724670 569.235291,266.557220 
	C567.788269,268.668610 566.137329,271.601288 566.529053,273.824219 
	C567.535583,279.535004 562.406311,282.289612 561.004150,286.826416 
	C560.342346,288.967529 559.318481,290.593719 560.145264,292.851257 
	C561.117981,295.507355 562.895142,296.988312 565.792053,296.722198 
	C567.870911,296.531219 569.309570,297.325958 570.895264,299.481812 
M467.019867,240.150482 
	C455.199585,236.919189 446.715668,242.296890 446.091797,253.433426 
	C445.932861,256.269775 446.226776,259.056702 447.079651,261.786682 
	C449.843079,270.631927 460.166504,274.637665 468.487030,270.555603 
	C480.408691,264.706909 479.241608,245.897934 467.019867,240.150482 
M481.754333,239.821106 
	C479.101410,239.922897 477.632538,241.310593 478.012329,243.945679 
	C478.942932,250.403030 477.077606,256.954468 478.254974,263.252686 
	C479.190643,268.257782 479.093872,272.494141 475.885590,276.494019 
	C475.840424,276.550354 476.218750,276.946320 476.664825,277.532593 
	C482.342102,273.580994 486.289520,268.441071 489.269714,262.181641 
	C491.995087,256.457489 490.475128,244.706863 485.752014,240.691681 
	C484.802948,239.884888 483.692505,239.683243 481.754333,239.821106 
M277.857697,635.003174 
	C271.564819,624.589111 260.036377,623.383240 250.914429,632.184814 
	C243.227890,639.601440 246.186996,653.127380 256.204224,656.820007 
	C263.444946,659.489136 269.407043,656.633850 274.635071,652.274353 
	C279.856415,647.920410 279.881683,641.863403 277.857697,635.003174 
M716.254089,645.899658 
	C716.199890,648.549561 715.992432,651.203125 717.214172,653.713379 
	C719.650513,658.718750 727.007996,663.185974 731.793518,662.509949 
	C738.836914,661.514832 744.698425,655.362183 746.320007,647.261658 
	C747.351990,642.106567 744.291809,636.121338 739.083923,633.109375 
	C729.627930,627.640503 719.670898,632.873596 716.254089,645.899658 
M659.722778,330.839966 
	C662.105164,331.805969 664.344666,333.607422 667.684998,331.919067 
	C666.833557,324.874695 665.984070,317.689941 665.081421,310.511871 
	C664.901855,309.083984 663.976257,308.192230 662.628296,307.651337 
	C658.889038,306.151031 652.889160,307.659058 650.287231,310.803589 
	C647.337158,314.368927 647.340149,319.056641 650.466919,323.151886 
	C652.794556,326.200409 655.566406,328.802582 659.722778,330.839966 
M225.258514,452.961029 
	C226.413681,450.877075 226.694672,448.581909 226.918304,446.262726 
	C227.137192,443.992554 228.901047,443.928345 230.586594,443.796783 
	C232.616882,443.638306 233.174896,444.889954 233.192642,446.588654 
	C233.217667,448.982056 233.198975,451.375916 233.198975,453.769562 
	C234.877121,448.898041 237.157272,444.275024 237.336319,439.120453 
	C229.991028,438.510071 224.824203,442.495148 222.877899,450.010376 
	C221.025696,457.162292 223.605637,462.610626 230.333221,465.754608 
	C233.185608,460.056213 233.245972,459.025055 230.969437,455.249115 
	C229.262573,457.411285 230.616547,461.085510 226.952087,463.134857 
	C227.356888,459.385498 224.774780,456.936035 225.258514,452.961029 
M764.629395,475.949127 
	C766.610474,484.288269 765.607117,493.062531 767.809570,501.410583 
	C773.305176,500.170044 775.715576,497.510040 775.755432,492.942719 
	C773.137939,493.345123 774.305603,497.066528 771.533813,497.482880 
	C768.296814,493.084259 767.153259,488.115692 767.736572,482.660156 
	C767.891479,481.211487 768.316589,479.985565 770.004089,479.928894 
	C771.460022,479.880035 773.016357,479.667450 773.487915,481.787354 
	C773.778381,483.093628 773.827515,484.853546 775.913025,484.921967 
	C776.290100,480.158630 773.047485,475.593170 768.327148,474.323547 
	C767.019531,473.971832 765.351196,472.973328 764.629395,475.949127 
M679.439331,380.138947 
	C676.882080,383.701508 678.091980,386.494415 681.478943,388.446472 
	C685.177307,390.578064 686.968689,387.915680 688.428101,385.106750 
	C689.267578,383.491058 690.054993,381.806946 690.547180,380.063660 
	C691.055420,378.263855 690.991089,376.304047 689.419983,374.977692 
	C687.625732,373.462952 685.922791,374.608154 684.452332,375.695282 
	C682.857239,376.874420 681.425964,378.275177 679.439331,380.138947 
M690.798950,286.467041 
	C687.638428,284.425873 684.434082,284.170746 681.850281,287.151276 
	C679.589600,289.759247 678.402954,293.402679 680.108093,296.329132 
	C681.789673,299.215179 685.643372,298.984619 688.738708,298.600006 
	C691.603516,298.244019 694.148865,296.866058 695.013428,293.722351 
	C695.934448,290.373322 693.976868,288.447632 690.798950,286.467041 
M712.860168,291.517090 
	C710.797607,284.960297 707.762939,279.122589 701.218506,275.707489 
	C709.041992,284.374481 713.543213,293.719147 707.701721,306.550385 
	C713.152100,302.060516 714.301453,297.551025 712.860168,291.517090 
M367.628876,761.666504 
	C370.292847,762.980591 373.205566,764.490295 373.807190,759.786560 
	C374.160339,757.025208 375.324310,753.156677 371.147339,752.397095 
	C366.646454,751.578674 367.211945,755.820801 366.439087,758.483887 
	C366.155487,759.461060 366.284576,760.464661 367.628876,761.666504 
M786.682800,469.097931 
	C790.876038,475.861359 793.004700,483.186310 792.058594,491.809662 
	C796.373962,487.465424 790.941833,468.251862 785.224487,464.881775 
	C784.653381,466.390961 785.960083,467.306641 786.682800,469.097931 
M309.228455,390.161743 
	C307.988708,388.496643 306.500458,387.811371 304.643982,389.166199 
	C303.778961,389.797577 303.389526,390.787598 303.979340,391.745148 
	C304.768433,393.026184 305.956329,394.162781 307.510498,394.013947 
	C309.294891,393.843109 309.831970,392.458038 309.228455,390.161743 
z"/>
<path fill="#000000" opacity="1.000000" stroke="none" 
	d="
M770.971802,444.035431 
	C765.464478,446.017761 760.329224,448.753479 754.447693,449.505005 
	C737.297485,451.696320 723.008301,444.533997 714.550781,429.300964 
	C713.263977,426.983215 711.848755,424.736755 710.245239,422.226318 
	C709.997559,421.995300 710.000000,422.000000 709.939697,421.634766 
	C706.075317,412.411133 702.156982,403.599579 698.506104,394.678497 
	C695.935730,388.397552 696.053284,388.230957 702.338806,385.414581 
	C722.822632,376.236420 743.404907,367.274323 763.800049,357.904205 
	C768.359558,355.809448 770.351746,356.985291 772.057495,361.176453 
	C775.942993,370.724091 780.106262,380.158264 784.042908,389.685577 
	C788.603455,400.722626 790.612183,411.894806 786.774048,423.741241 
	C783.947693,432.464508 777.946777,438.395264 771.165222,443.880615 
	C771.165222,443.880615 771.035767,443.983246 770.971802,444.035431 
M751.047119,384.571808 
	C740.241882,389.587402 729.436707,394.602997 718.333618,399.756866 
	C721.278137,407.077484 723.836060,414.120697 727.825806,420.413635 
	C733.553528,429.447876 743.763062,432.469849 753.974243,429.572662 
	C763.262146,426.937531 768.511169,420.096771 773.367615,412.699402 
	C774.492859,410.985474 775.209534,408.475494 773.938538,406.490692 
	C770.839478,401.651398 769.914246,395.996338 767.700806,390.824677 
	C762.870728,379.539124 763.053040,379.461090 751.047119,384.571808 
z"/>
<path fill="#000000" opacity="1.000000" stroke="none" 
	d="
M196.689407,502.713928 
	C210.572861,487.543732 239.919281,488.728180 252.773865,504.419312 
	C259.589386,512.738770 263.117523,522.222168 264.033142,532.699036 
	C264.987305,543.616211 265.407135,554.579346 266.128723,565.518005 
	C266.330475,568.576172 265.695129,571.058167 262.098938,570.969360 
	C250.619400,570.686035 239.236710,573.077087 227.744873,572.125549 
	C226.142456,571.992859 224.373825,572.135803 223.300232,570.488098 
	C227.293762,566.041138 227.252060,566.097534 222.305237,562.440918 
	C220.365860,561.007324 217.720154,559.629089 218.914124,556.516174 
	C220.086548,553.459473 223.184692,553.533997 225.730331,553.363464 
	C232.026016,552.941589 238.342850,552.760071 244.653809,552.674438 
	C247.680176,552.633301 248.986877,551.326477 248.654709,548.407959 
	C247.848328,541.323120 248.223984,534.122559 246.121170,527.159668 
	C243.214432,517.534851 234.318253,511.247681 223.287201,511.353363 
	C212.647125,511.455322 202.810165,518.713196 200.248016,528.032654 
	C198.525314,534.298767 198.945084,540.560181 199.531082,546.867310 
	C199.654221,548.192566 199.958511,549.510010 199.976471,550.833801 
	C200.000305,552.589050 200.522675,554.954834 198.014130,555.261658 
	C195.720428,555.542236 195.267349,553.290955 194.635406,551.583557 
	C193.802200,549.332336 193.666473,547.005371 194.160721,544.693298 
	C194.969772,540.908936 194.768860,537.088501 194.933716,533.268372 
	C195.132690,528.656921 194.147919,524.985168 190.414032,521.822815 
	C186.790482,518.753906 187.248154,514.663086 189.811600,511.027405 
	C191.809204,508.194214 194.235657,505.663422 196.689407,502.713928 
z"/>
<path fill="#000000" opacity="1.000000" stroke="none" 
	d="
M384.167603,244.902649 
	C400.520874,241.408264 414.806061,249.848755 420.481201,266.033325 
	C425.462250,280.238556 418.921082,295.481812 405.510498,303.011688 
	C394.710754,309.075623 384.009430,311.512451 372.237701,306.363739 
	C353.567657,298.197845 346.134186,268.419373 365.631989,254.271255 
	C371.225952,250.212143 376.946991,246.579147 384.167603,244.902649 
M376.407257,265.304382 
	C371.141296,272.324249 371.424133,280.366302 377.192352,287.627533 
	C381.811798,293.442535 388.395569,294.621765 396.661621,290.815948 
	C405.187378,285.299744 406.540649,276.848083 400.441986,267.206512 
	C395.219147,258.949615 383.781006,257.876221 376.407257,265.304382 
z"/>
<path fill="#000000" opacity="1.000000" stroke="none" 
	d="
M306.134766,352.594879 
	C315.637177,350.804810 317.648865,348.664520 326.661499,331.014923 
	C329.156921,333.228516 331.628021,335.332123 334.648560,331.482697 
	C335.590179,330.282684 337.412415,331.486053 338.126923,333.090851 
	C338.974670,334.995056 338.908661,336.930237 338.583862,338.958313 
	C336.288574,353.290253 319.139313,368.686523 304.660858,369.232758 
	C290.443146,369.769196 280.238403,363.119751 274.330231,350.604065 
	C268.623047,338.514099 270.677582,326.828888 279.175781,316.580963 
	C286.733398,307.467285 296.272186,302.506165 308.535492,304.040222 
	C315.467377,304.907379 320.918335,308.473480 326.026825,312.900482 
	C329.272339,315.713043 329.161499,318.016602 326.126068,321.125549 
	C317.526642,329.933228 309.206635,339.013977 300.797607,348.006805 
	C300.145599,348.704102 299.657166,349.554260 299.068726,350.366425 
	C301.055145,352.470337 303.609894,351.883850 306.134766,352.594879 
M293.225098,322.618652 
	C286.095703,329.291931 284.975098,336.211029 290.458160,342.568359 
	C296.546753,335.490143 303.707916,329.484039 309.475281,321.898987 
	C303.619812,318.325439 298.670776,318.947968 293.225098,322.618652 
z"/>
<path fill="#000000" opacity="1.000000" stroke="none" 
	d="
M563.008301,264.998810 
	C553.309021,263.727905 543.620300,262.185760 533.871460,261.322113 
	C528.641724,260.858826 523.555359,258.932159 518.199768,259.355865 
	C518.385681,266.352600 523.504456,271.495605 531.515747,272.531891 
	C536.448669,273.170013 541.516174,273.601807 546.010559,270.500366 
	C547.844360,269.234924 549.488281,269.504364 550.723450,271.374084 
	C552.280518,273.731079 553.959045,276.040833 555.215149,278.555756 
	C556.999084,282.127533 554.038513,283.300293 551.651550,284.389435 
	C541.361633,289.084442 530.975708,288.220184 520.567017,284.722656 
	C507.571442,280.355804 499.012512,268.484680 499.050018,254.811737 
	C499.095184,238.344421 512.499573,224.501099 528.944336,223.938522 
	C547.905579,223.289856 560.007019,231.769714 563.733826,248.377335 
	C564.926147,253.690430 564.336121,258.958801 563.003052,264.607544 
	C562.966553,265.035339 562.993774,265.009949 563.008301,264.998810 
M521.749023,248.063416 
	C530.139709,248.929855 538.363831,251.163864 546.866211,251.323914 
	C546.827942,244.273987 543.266724,240.128479 535.767578,238.203995 
	C529.887390,236.694977 523.221680,239.145905 520.581238,243.862335 
	C519.811218,245.237701 518.468140,246.824554 521.749023,248.063416 
z"/>
<path fill="#000000" opacity="1.000000" stroke="none" 
	d="
M614.980774,749.024719 
	C621.155029,746.980774 626.514160,743.455200 632.072937,740.124390 
	C628.128601,735.293335 622.176758,733.863342 616.166870,736.144836 
	C610.570068,738.269470 605.731689,741.488098 603.039062,747.015137 
	C601.784302,749.590759 600.215454,749.931335 597.880554,749.033020 
	C597.725647,748.973450 597.565308,748.927673 597.407410,748.875854 
	C587.363953,745.580750 586.381836,742.089600 593.763306,734.030212 
	C601.707458,725.356384 611.558472,721.101746 623.507263,719.959534 
	C643.136658,718.083130 656.884216,735.447205 655.763916,753.781860 
	C654.611816,772.636414 634.860168,787.095093 614.601318,782.871582 
	C605.251831,780.922424 598.477844,774.678955 594.102478,765.990967 
	C592.669250,763.145020 593.223999,761.556458 595.890808,759.899902 
	C601.959839,756.129578 608.898865,753.946838 614.792480,749.260742 
	C614.997559,749.006042 614.980774,749.024719 614.980774,749.024719 
M632.556580,766.184265 
	C639.202454,760.857727 640.779480,756.006531 637.668701,750.090759 
	C630.327393,753.924927 622.967773,757.728027 615.650940,761.611633 
	C613.026855,763.004517 613.639709,764.556274 615.565002,766.211182 
	C619.476807,769.573242 625.983582,769.774170 632.556580,766.184265 
z"/>
<path fill="#000000" opacity="1.000000" stroke="none" 
	d="
M760.814636,531.289490 
	C773.603882,522.331787 788.152100,528.156982 790.968933,543.239929 
	C793.120178,554.759155 790.883423,565.725342 785.659668,576.151733 
	C783.872375,579.719177 781.777344,580.504150 778.170593,578.210815 
	C771.318359,573.853821 770.877380,573.847961 774.378723,566.617249 
	C777.152039,560.890137 776.353577,554.978088 776.726868,549.099609 
	C776.839722,547.322449 775.997314,545.791931 774.132385,545.268005 
	C771.870422,544.632568 770.303955,545.687439 769.135254,547.589539 
	C766.645935,551.640808 766.304321,556.448608 764.453735,560.728149 
	C763.399170,563.166687 762.682495,565.755615 761.568787,568.163513 
	C758.400879,575.012695 753.213440,578.749695 745.408936,578.324341 
	C737.819763,577.910767 732.969849,573.522949 730.413940,566.933533 
	C724.330811,551.250427 729.190857,536.874512 736.546387,522.955444 
	C737.510559,521.131042 738.935486,520.824097 740.701660,521.960327 
	C742.941406,523.401306 745.218079,524.784912 747.477539,526.195190 
	C749.937378,527.730530 750.201355,529.430176 748.539368,531.960327 
	C744.629761,537.912415 742.359375,544.525452 742.171509,551.679443 
	C742.091675,554.718872 741.501160,558.827759 745.572998,559.551758 
	C749.903076,560.321655 750.775635,556.303650 751.716248,553.105042 
	C753.920715,545.608154 755.692322,537.941223 760.814636,531.289490 
z"/>
<path fill="#000000" opacity="1.000000" stroke="none" 
	d="
M251.964081,392.965271 
	C258.080719,395.690552 264.690521,393.876923 270.897705,395.875580 
	C271.513855,392.687744 269.679626,391.406799 268.528625,389.923096 
	C261.803894,381.254425 255.050385,372.606140 248.159866,364.069366 
	C246.301437,361.766968 246.052887,359.840698 247.687454,357.347992 
	C249.851044,354.048523 251.734879,350.565613 253.871979,346.935547 
	C257.524353,348.904724 259.406097,352.106537 261.634857,354.870392 
	C272.175598,367.941742 282.562500,381.137299 293.112152,394.201416 
	C295.171814,396.751984 295.355713,399.022278 293.986237,401.962830 
	C287.827789,415.186401 287.905426,415.067719 273.410248,413.397491 
	C257.556396,411.570770 241.666885,410.053680 225.793411,408.396851 
	C224.476685,408.259430 223.117661,408.225189 222.094696,407.198364 
	C222.930725,400.670502 225.754196,396.885742 230.699310,395.673523 
	C232.137970,398.171906 226.117340,400.120392 229.889313,402.371246 
	C232.654205,404.021118 235.603348,402.427704 238.100449,400.893066 
	C238.049973,400.234406 238.124619,399.861359 237.985107,399.604675 
	C237.036041,397.858887 233.497421,397.550598 234.775589,394.688995 
	C235.850052,392.283417 238.490036,392.893066 240.585739,392.868500 
	C244.080124,392.827545 247.576599,392.967255 251.530579,393.011597 
	C251.988937,392.992340 251.964081,392.965271 251.964081,392.965271 
z"/>
<path fill="#000000" opacity="1.000000" stroke="none" 
	d="
M326.935608,297.029846 
	C319.980042,287.268463 313.331970,277.722961 306.414032,268.377228 
	C304.127533,265.288269 304.858276,263.643463 307.654480,261.515778 
	C317.979218,253.659378 319.924103,254.265396 327.285980,265.035278 
	C339.184601,282.442078 351.555634,299.528900 363.893219,316.631012 
	C368.060516,322.407623 368.242676,322.607147 362.548676,326.550140 
	C352.937134,333.206024 352.978943,333.176178 346.119843,323.568817 
	C339.846466,314.781891 333.469360,306.069061 326.935608,297.029846 
z"/>
<path fill="#000000" opacity="1.000000" stroke="none" 
	d="
M723.707275,579.966064 
	C730.137085,579.650085 735.509644,582.633179 741.204895,584.238647 
	C753.008789,587.566040 764.641174,591.497925 776.379883,595.063232 
	C780.213257,596.227539 782.071350,597.496277 780.775940,602.387695 
	C776.938965,616.876343 777.036682,614.895325 765.541931,611.272156 
	C750.985474,606.683899 736.440063,602.057861 721.832520,597.637451 
	C718.681824,596.684021 718.002319,595.450134 719.045288,592.297974 
	C720.396851,588.213440 721.051270,583.897705 723.707275,579.966064 
z"/>
<path fill="#000000" opacity="1.000000" stroke="none" 
	d="
M213.984344,516.618408 
	C220.911285,514.240417 227.116760,513.918030 234.111969,516.822205 
	C243.488174,520.714966 245.016098,528.046875 245.223511,536.283813 
	C245.574677,550.229309 245.338333,549.887451 231.624634,550.459167 
	C224.070221,550.774109 216.635315,552.835632 208.936584,552.361633 
	C202.934631,551.992065 202.118866,551.576172 201.852112,545.464111 
	C201.571091,539.024780 201.026169,532.438965 203.911911,526.439087 
	C205.954971,522.191223 207.947983,517.462708 213.984344,516.618408 
M219.733322,549.281738 
	C226.083450,547.890015 231.663086,545.119690 234.829025,539.203186 
	C237.068314,535.018311 234.439926,531.868713 231.315323,529.387817 
	C228.888229,527.460693 225.824326,525.907104 223.296631,528.756775 
	C220.860718,531.503113 217.902344,533.658813 215.526001,536.394836 
	C208.306915,544.706299 208.715408,546.059326 219.733322,549.281738 
z"/>
<path fill="#000000" opacity="1.000000" stroke="none" 
	d="
M251.998901,393.007324 
	C252.437164,392.548920 252.865479,392.075592 253.483002,391.393127 
	C245.289429,388.282532 236.930832,389.151459 228.720032,389.453125 
	C225.825241,389.559448 224.638641,393.069336 223.124390,395.360931 
	C221.695068,397.524048 220.683228,399.963013 219.461960,402.330627 
	C216.531677,400.253296 217.219101,397.756775 218.610382,395.286713 
	C221.924332,389.403107 226.540451,385.338257 233.354111,383.625366 
	C241.400421,381.602631 244.092667,377.179749 243.311859,368.790924 
	C243.269623,368.337036 243.540176,367.854004 243.716095,367.192932 
	C246.717514,366.244812 248.069458,366.915009 249.486877,370.251495 
	C251.171616,374.217255 254.115158,377.878235 257.228455,380.945312 
	C260.639130,384.305389 263.178772,387.997223 264.945953,392.710205 
	C260.976288,394.189667 256.878784,392.880157 252.412170,392.993439 
	C251.964081,392.965271 251.988937,392.992340 251.998901,393.007324 
z"/>
<path fill="#000000" opacity="1.000000" stroke="none" 
	d="
M761.019287,530.629639 
	C756.470276,530.679199 755.489563,533.852051 754.187500,537.296204 
	C751.951355,543.211121 751.400940,549.729126 747.819702,555.139282 
	C747.511597,555.604675 746.779602,555.789429 745.575745,556.498474 
	C744.050049,551.158813 744.347168,546.505493 746.770996,541.957825 
	C748.317932,539.055359 749.823547,536.185486 750.884827,533.006653 
	C752.221375,529.003052 751.771729,526.188293 748.060669,523.818237 
	C746.642639,522.912598 745.822632,521.070557 744.625183,519.519287 
	C746.703796,517.117920 749.205750,515.669006 750.749084,512.991638 
	C754.855103,505.869385 749.468872,501.210388 746.793762,496.030457 
	C743.566162,489.780640 744.152161,486.466705 750.364868,482.885162 
	C754.580322,491.452148 754.821899,500.620880 754.193848,509.843414 
	C753.684448,517.324280 755.703125,522.930298 763.673706,524.490356 
	C764.445862,527.484131 760.394409,527.702454 761.019287,530.629639 
z"/>
<path fill="#000000" opacity="1.000000" stroke="none" 
	d="
M578.441284,779.662842 
	C581.196167,776.532959 581.508484,773.414734 580.952393,769.647400 
	C579.744019,761.462341 576.769714,753.925171 573.555725,746.431091 
	C572.786804,744.638123 571.356567,742.979980 573.151428,740.921509 
	C576.429504,740.976807 577.641907,742.920654 578.446106,745.778137 
	C582.229065,759.220398 586.053833,772.653687 590.129456,786.009033 
	C591.195190,789.501404 590.144226,792.950073 590.871277,796.370544 
	C591.087769,797.389404 590.458374,798.475220 589.406860,798.721497 
	C585.917114,799.538513 582.794495,801.753479 578.763611,801.643860 
	C577.996216,796.666504 584.267151,798.990662 584.448669,794.806458 
	C580.801392,791.146912 575.272522,787.332886 578.441284,779.662842 
z"/>
<path fill="#000000" opacity="1.000000" stroke="none" 
	d="
M565.738281,796.261169 
	C565.264771,793.070251 563.888611,793.817566 562.351074,795.089111 
	C561.079834,796.140381 559.911438,797.438904 558.458801,798.115112 
	C556.832703,798.872070 554.601624,799.339722 553.867065,796.983826 
	C553.271606,795.073975 554.247437,793.503418 556.456299,792.916199 
	C563.057617,791.161438 566.440369,785.534851 570.612244,781.007568 
	C573.433594,784.560486 570.008057,786.584778 568.134277,789.351074 
	C570.877319,790.580688 575.315247,789.614258 574.709534,794.391113 
	C574.292542,797.679565 569.089966,801.501038 564.235901,802.161926 
	C563.713257,800.023071 565.818115,798.577576 565.738281,796.261169 
z"/>
<path fill="#000000" opacity="1.000000" stroke="none" 
	d="
M252.496292,459.468231 
	C252.289352,463.364105 249.609268,464.560669 246.785873,466.382355 
	C245.628052,462.859131 244.313141,459.876587 247.400711,457.089935 
	C248.987488,455.657867 248.542328,453.740417 248.661255,451.951599 
	C248.769913,450.317108 248.150070,448.360413 249.443344,447.172943 
	C250.679626,446.037811 251.022675,443.481537 253.449646,444.011383 
	C256.114288,444.593109 255.148315,446.914185 255.213654,448.534576 
	C255.364105,452.265472 256.061951,456.215485 252.496292,459.468231 
z"/>
<path fill="#000000" opacity="1.000000" stroke="none" 
	d="
M615.007446,748.999146 
	C611.288757,746.171753 609.169983,752.340637 605.628540,750.745544 
	C607.614075,742.792725 618.021729,735.316833 626.361206,740.160156 
	C622.666504,741.457336 620.983521,745.397644 616.844116,745.337708 
	C614.513062,745.303955 614.677979,746.807800 614.939453,748.700378 
	C614.980774,749.024719 614.997559,749.006042 615.007446,748.999146 
z"/>
<path fill="#000000" opacity="1.000000" stroke="none" 
	d="
M543.515625,267.625000 
	C538.745911,272.390503 536.091919,272.576050 530.221619,268.952301 
	C529.554138,268.540253 528.673828,268.365723 527.873779,268.297760 
	C526.169739,268.152985 524.287170,268.227814 524.616821,265.720276 
	C524.890137,263.641296 526.709717,263.775726 528.132812,263.857819 
	C532.593079,264.115051 537.047363,264.499268 541.495911,264.920166 
	C542.831482,265.046539 543.415833,266.093201 543.515625,267.625000 
z"/>
<path fill="#000000" opacity="1.000000" stroke="none" 
	d="
M317.350708,335.416534 
	C318.920166,334.354004 318.555664,331.757721 320.930054,332.050537 
	C323.940521,338.102203 313.939575,348.947144 305.124146,348.848541 
	C308.177399,343.439331 313.264893,340.098755 317.350708,335.416534 
z"/>
<path fill="#000000" opacity="1.000000" stroke="none" 
	d="
M787.557678,614.971436 
	C786.425781,608.901917 788.322327,604.159729 792.634583,602.472229 
	C795.873657,601.204651 799.302551,600.485229 802.012451,604.363098 
	C798.854492,606.875427 794.400879,602.768250 791.885498,606.847351 
	C789.566833,610.607605 792.599304,613.791565 792.928040,617.435303 
	C790.419678,618.143921 788.958191,617.040833 787.557678,614.971436 
z"/>
<path fill="#000000" opacity="1.000000" stroke="none" 
	d="
M563.065735,757.868103 
	C562.309448,755.270447 561.679749,753.042786 560.924072,750.858643 
	C559.506470,746.761658 560.731812,744.474121 565.533875,744.219238 
	C563.657471,751.543091 567.196594,758.302979 567.160583,765.836731 
	C564.460571,763.793396 563.723572,761.067810 563.065735,757.868103 
z"/>
<path fill="#000000" opacity="1.000000" stroke="none" 
	d="
M495.026306,270.301392 
	C494.094666,267.106323 497.026093,265.622681 497.604980,263.151031 
	C497.979858,265.325195 498.366394,267.497437 498.725037,269.674316 
	C498.928162,270.907104 498.763336,272.199036 497.488678,272.611328 
	C495.989227,273.096375 495.623138,271.667084 495.026306,270.301392 
z"/>
<path fill="#000000" opacity="1.000000" stroke="none" 
	d="
M601.712646,245.939133 
	C606.499756,244.619217 610.929993,244.538803 615.388184,245.773376 
	C618.646240,246.675583 619.673645,248.674042 618.555725,251.815155 
	C617.885864,253.697220 617.105286,255.541779 616.487610,257.440033 
	C615.357727,260.912109 613.210266,261.889557 609.575806,261.220520 
	C597.418030,258.982666 593.093567,261.676086 588.936218,273.478760 
	C586.393127,280.698486 583.622437,287.843292 581.285156,295.127991 
	C580.159363,298.636719 578.492432,299.333405 575.462585,297.571533 
	C575.177185,297.405548 574.820557,297.353912 574.550781,297.170258 
	C570.807190,294.621643 563.068726,296.218597 563.814941,289.347687 
	C564.310242,284.787567 566.020691,279.528046 569.988159,276.041107 
	C572.389221,273.930878 571.796387,271.226074 572.028687,268.632843 
	C572.161682,267.147980 572.215820,265.531372 573.914795,264.866089 
	C574.942871,264.463531 575.937134,264.894623 576.640930,265.647522 
	C578.065918,267.171875 576.717041,268.324341 576.064880,269.636414 
	C575.563354,270.645477 575.267944,271.812012 575.142517,272.937683 
	C575.013977,274.091888 575.130859,275.406464 576.353943,275.991058 
	C577.953857,276.755737 579.148193,275.571136 579.549011,274.416565 
	C582.208801,266.755249 588.398804,262.358734 594.434814,257.748108 
	C595.845398,256.670624 597.711304,254.947113 596.130310,253.170364 
	C594.012573,250.790421 591.966248,247.628326 588.057190,248.128693 
	C585.799500,248.417664 583.612671,249.259399 581.394043,249.852722 
	C579.688232,246.464127 581.009094,238.997772 583.628113,236.637268 
	C584.636780,235.728149 585.640991,235.587296 586.833496,235.986435 
	C588.569641,236.567505 590.346130,237.052628 592.030457,237.757706 
	C594.451904,238.771332 597.119385,239.296432 599.404236,241.234741 
	C598.919006,243.088379 598.431152,244.951828 597.947083,246.800995 
	C599.510315,247.551834 600.251282,246.105957 601.712646,245.939133 
z"/>
<path fill="#000000" opacity="1.000000" stroke="none" 
	d="
M316.598053,688.416504 
	C313.593231,685.399109 310.475342,683.316895 306.395294,682.804504 
	C306.570984,685.008850 307.291748,686.169434 309.593292,687.072632 
	C316.452606,689.764709 320.066406,696.489868 318.537231,702.706665 
	C318.078278,702.742432 317.238983,702.952148 317.162018,702.793152 
	C313.743103,695.725769 306.714050,691.742188 302.461761,685.523193 
	C300.998779,683.383606 301.700317,679.633606 301.736176,676.623169 
	C301.864929,665.803833 303.563812,664.354919 313.734833,668.716736 
	C327.787659,674.743164 336.983398,685.289917 339.031128,700.860291 
	C340.678253,713.384766 333.401062,726.116455 322.090240,731.743103 
	C309.697662,737.907898 296.051056,736.115967 285.872040,726.987122 
	C270.914062,713.572388 269.913391,693.850037 283.474335,679.732178 
	C287.507690,675.533203 288.066925,675.572144 292.061798,679.708923 
	C300.141266,688.075439 308.263245,696.401062 316.387421,704.724243 
	C317.520966,705.885559 318.766235,706.937866 319.985962,708.064758 
	C324.238831,702.005188 323.163971,695.884338 316.598053,688.416504 
M289.437134,704.533508 
	C289.962921,711.861328 294.025330,716.573486 300.750549,718.795959 
	C304.541779,720.048950 308.414429,719.543274 311.889374,716.669983 
	C304.830688,709.963501 298.190948,703.655090 291.474426,697.273743 
	C289.704529,698.702332 290.058411,701.397095 289.437134,704.533508 
z"/>
<path fill="#000000" opacity="1.000000" stroke="none" 
	d="
M450.981995,263.939819 
	C449.418457,261.044189 447.478149,258.904816 447.604126,255.528580 
	C447.859833,248.676987 453.173096,245.287659 459.475403,248.357956 
	C462.346680,249.756775 464.881439,252.045929 468.593872,249.927460 
	C470.123901,249.054306 472.153168,250.143494 472.997406,252.144470 
	C476.908081,261.413361 470.494720,269.850433 460.537384,268.834747 
	C456.718506,268.445190 453.707062,266.982727 450.981995,263.939819 
z"/>
<path fill="#000000" opacity="1.000000" stroke="none" 
	d="
M264.927551,629.686401 
	C271.162445,629.593506 274.787201,632.708069 276.647278,637.834290 
	C278.433502,642.757019 276.345367,646.324097 272.734589,650.041443 
	C264.613068,658.402527 256.092438,656.800049 249.531326,648.470032 
	C246.897369,645.126038 249.586945,636.796387 254.385162,632.942688 
	C257.359314,630.554077 260.620728,629.244507 264.927551,629.686401 
z"/>
<path fill="#000000" opacity="1.000000" stroke="none" 
	d="
M744.505005,647.050415 
	C743.872070,646.152161 743.632568,644.846313 742.925537,647.040588 
	C741.975525,649.988831 741.864685,652.851440 739.550354,655.831238 
	C734.983154,661.711670 729.463989,659.473389 724.806946,658.668030 
	C721.250854,658.053040 719.962280,653.103088 719.304504,649.111389 
	C717.948364,640.880920 725.454102,632.259033 733.345032,632.584167 
	C736.596558,632.718079 737.877136,635.298340 739.583557,636.823425 
	C742.387512,639.329285 745.539612,642.399109 744.505005,647.050415 
z"/>
<path fill="#000000" opacity="1.000000" stroke="none" 
	d="
M656.042419,325.818665 
	C655.613586,324.210297 654.890503,323.138702 653.782410,322.309753 
	C649.423279,319.048492 651.278748,314.943970 653.044189,311.602722 
	C654.655273,308.553589 658.005493,309.778717 660.566650,310.923615 
	C661.896484,311.518097 662.705383,310.379089 663.739807,310.532837 
	C665.706238,316.610199 664.600891,322.660034 664.260620,328.451813 
	C660.300415,331.088531 658.945801,326.673889 656.042419,325.818665 
z"/>
<path fill="#000000" opacity="1.000000" stroke="none" 
	d="
M683.490112,289.369751 
	C688.876404,284.787994 690.857849,290.273926 694.140076,292.117249 
	C691.142456,296.259735 686.378113,297.768066 682.613525,295.614746 
	C678.678162,293.363739 681.317444,291.475800 683.490112,289.369751 
z"/>
<path fill="#000000" opacity="1.000000" stroke="none" 
	d="
M755.318726,426.770477 
	C746.957764,430.556183 737.119019,427.374969 731.561157,420.590118 
	C728.047119,416.300262 725.896057,411.374725 723.073364,406.778656 
	C721.083801,403.539276 723.569031,398.734985 729.221008,397.453125 
	C733.747070,396.426666 736.507324,392.891602 741.001648,391.686127 
	C745.479248,390.485107 750.162842,388.697388 754.655029,386.907318 
	C756.387878,386.216766 757.659729,384.908997 759.189270,384.397125 
	C764.860962,385.179779 764.694336,390.817505 766.158630,394.022278 
	C767.795654,397.604797 770.328003,401.676910 770.100891,405.880554 
	C769.575012,415.612488 764.481201,422.483917 755.318726,426.770477 
M753.596313,396.706573 
	C753.770630,398.025238 753.899719,399.351715 754.127014,400.661163 
	C755.086304,406.186371 757.735962,407.620789 763.662903,405.488037 
	C762.050110,400.889832 760.435852,396.287354 758.818237,391.675232 
	C755.748047,391.911194 754.411865,393.627258 753.596313,396.706573 
z"/>
<path fill="#000000" opacity="1.000000" stroke="none" 
	d="
M396.074951,290.673340 
	C394.636383,289.713104 393.138245,290.109802 391.445190,290.456757 
	C385.721405,291.629822 379.406769,287.788239 376.507019,282.031342 
	C375.046326,279.131470 371.741241,275.895630 374.359039,273.244202 
	C376.809540,270.762146 376.410553,268.373444 376.913696,265.382568 
	C379.851685,264.608490 382.533508,264.535400 385.271240,262.608368 
	C389.148224,259.879425 392.922852,262.454620 395.638458,265.423309 
	C398.419708,268.463684 399.289337,272.834198 402.707001,275.702087 
	C404.083740,276.857300 403.604858,279.587219 401.794952,281.456360 
	C399.340424,283.991211 397.312347,286.903259 396.074951,290.673340 
z"/>
<path fill="#000000" opacity="1.000000" stroke="none" 
	d="
M293.278625,336.020630 
	C288.981384,336.918365 290.658264,333.973358 290.685974,332.443665 
	C290.770538,327.769318 296.273224,322.351776 300.341095,322.738037 
	C301.311493,322.830139 302.426208,322.762573 302.834320,323.922241 
	C303.222870,325.026276 302.457031,325.553223 301.734680,326.338409 
	C298.904968,329.414154 296.293457,332.690674 293.278625,336.020630 
z"/>
<path fill="#000000" opacity="1.000000" stroke="none" 
	d="
M540.444336,249.281769 
	C534.262146,250.218460 530.092041,246.145935 524.263062,244.927872 
	C527.527771,241.454926 529.314209,236.915649 534.339905,239.047195 
	C536.876465,240.123047 538.647766,242.918961 541.139099,244.222046 
	C542.339172,244.849731 543.229187,244.869080 543.301697,246.484802 
	C543.386169,248.366898 542.760254,249.310532 540.444336,249.281769 
z"/>
<path fill="#000000" opacity="1.000000" stroke="none" 
	d="
M620.765503,764.295654 
	C621.342468,759.489990 626.068909,760.454651 628.589661,758.368286 
	C629.976501,757.220398 632.212952,756.485657 633.917908,755.027893 
	C638.013367,758.250732 635.381104,760.491455 633.175537,762.667664 
	C628.571777,767.210266 623.944336,767.899719 620.765503,764.295654 
z"/>
<path fill="#000000" opacity="1.000000" stroke="none" 
	d="
M294.190613,709.655457 
	C293.865692,707.463074 291.395233,707.387146 291.056732,705.646301 
	C295.042145,701.463074 301.279480,705.960327 304.882416,715.746704 
	C299.321198,717.400696 296.498108,714.323792 294.190613,709.655457 
z"/>
</svg>